HIERARCHY
ROOT Hips
{
  OFFSET 0 89.5177 0.535
  CHANNELS 6 Xposition Yposition Zposition Zrotation Xrotation Yrotation
  JOINT Spine
  {
    OFFSET 12.0259 -0.162855 1.69034e-005
    CHANNELS 3 Zrotation Xrotation Yrotation
    JOINT Spine1
    {
      OFFSET 15.3169 -0.0121922 0
      CHANNELS 3 Zrotation Xrotation Yrotation
      JOINT Spine2
      {
        OFFSET 15.3176 -0.0121908 0
        CHANNELS 3 Zrotation Xrotation Yrotation
        JOINT Neck
        {
          OFFSET 19.9142 1.56338 0
          CHANNELS 3 Zrotation Xrotation Yrotation
          JOINT Head
          {
            OFFSET 6.92651 0 0
            CHANNELS 3 Zrotation Xrotation Yrotation
            End Site
            {
              OFFSET 20.7666 0 0
            }
          }
          JOINT LeftShoulder
          {
            OFFSET -6.20654 0.708824 7.28219
            CHANNELS 3 Zrotation Xrotation Yrotation
            JOINT LeftArm
            {
              OFFSET 14.108 0 -1.52588e-005
              CHANNELS 3 Zrotation Xrotation Yrotation
              JOINT LeftForeArm
              {
                OFFSET 28.5802 0 0
                CHANNELS 3 Zrotation Xrotation Yrotation
                JOINT LeftHand
                {
                  OFFSET 27.092 0 0
                  CHANNELS 3 Zrotation Xrotation Yrotation
                  End Site
                  {
                    OFFSET 9.55928 -0.186424 0.145352
                  }
                }
              }
            }
          }
          JOINT RightShoulder
          {
            OFFSET -6.20654 0.708866 -7.28218
            CHANNELS 3 Zrotation Xrotation Yrotation
            JOINT RightArm
            {
              OFFSET 14.108 0 1.52588e-005
              CHANNELS 3 Zrotation Xrotation Yrotation
              JOINT RightForeArm
              {
                OFFSET 28.5802 0 0
                CHANNELS 3 Zrotation Xrotation Yrotation
                JOINT RightHand
                {
                  OFFSET 27.092 0 0
                  CHANNELS 3 Zrotation Xrotation Yrotation
                  End Site
                  {
                    OFFSET 9.55929 -0.186417 -0.145354
                  }
                }
              }
            }
          }
        }
      }
    }
  }
  JOINT LeftUpLeg
  {
    OFFSET 0.005 -0.535 8.837
    CHANNELS 3 Zrotation Xrotation Yrotation
    JOINT LeftLeg
    {
      OFFSET 39.9035 0 0
      CHANNELS 3 Zrotation Xrotation Yrotation
      JOINT LeftFoot
      {
        OFFSET 39.6689 0 0
        CHANNELS 3 Zrotation Xrotation Yrotation
        JOINT LeftToe
        {
          OFFSET 10.1624 13.6296 0
          CHANNELS 3 Zrotation Xrotation Yrotation
          End Site
          {
            OFFSET 8.38147 0 0
          }
        }
      }
    }
  }
  JOINT RightUpLeg
  {
    OFFSET 0.005 -0.535 -8.837
    CHANNELS 3 Zrotation Xrotation Yrotation
    JOINT RightLeg
    {
      OFFSET 39.9035 0 0
      CHANNELS 3 Zrotation Xrotation Yrotation
      JOINT RightFoot
      {
        OFFSET 39.6689 0 0
        CHANNELS 3 Zrotation Xrotation Yrotation
        JOINT RightToe
        {
          OFFSET 10.1624 13.6296 0
          CHANNELS 3 Zrotation Xrotation Yrotation
          End Site
          {
            OFFSET 8.38147 0 0
          }
        }
      }
    }
  }
}
MOTION
Frames:	17
Frame Time:	0.0333333
518.879 71.2304 -196.242 126.116 51.4451 -29.282 4.9433 0.355154 0.465814 9.88386 0.749603 0.899428 9.88386 0.749602 0.899419 -8.29794e-012 -9.0191e-006 -5.27751e-005 -23.8125 -27.9352 3.89031 -175.196 -16.3937 -73.4179 -19.1667 -18.7043 59.2514 -60.8819 -3.18055e-015 6.36111e-015 -64.947 -76.2483 -71.2783 -177.132 9.41336 72.9732 -72.2702 10.426 -46.8413 -58.5637 -1.59028e-015 3.18055e-015 -87.8015 62.3957 93.8557 -66.3363 -6.29035 -167.839 -72.3809 6.36111e-015 -3.18055e-015 28.858 10.1609 -13.614 90 0 -6.36111e-015 -68.7429 -5.70355 160.954 -75.1825 0 -3.18056e-015 28.2051 -3.486 8.43053 90 -6.06643e-021 9.54166e-015 
519.497 71.798 -196.81 127.567 50.7906 -30.6448 5.19226 0.34438 0.433653 10.3821 0.727069 0.83449 10.3821 0.727069 0.83448 -8.30112e-012 -9.0191e-006 -5.27751e-005 -25.2789 -27.9483 3.72099 -175.217 -16.3399 -73.4369 -19.2626 -19.0288 59.6226 -62.419 -6.36111e-015 -6.36111e-015 -65.4778 -74.379 -72.1866 -177.163 9.23954 72.8493 -72.6279 9.75488 -46.5556 -58.3789 3.18055e-015 9.54166e-015 -88.1217 60.9709 94.4664 -67.581 -5.46653 -167.489 -70.9768 -3.18055e-015 1.59028e-015 27.3687 10.8043 -13.0274 90 6.06643e-021 3.18055e-015 -69.7295 -6.28883 161.087 -73.4238 0 -0 26.6665 -3.75745 8.22037 90 -6.06643e-021 -3.18055e-015 
520.149 72.685 -197.207 128.766 50.1448 -31.5097 5.41591 0.275435 0.335008 10.8303 0.581743 0.642638 10.8303 0.581743 0.642628 -8.31384e-012 -9.0191e-006 -5.27751e-005 -26.8552 -27.3854 3.4786 -175.281 -16.2463 -73.5599 -19.3625 -19.034 59.4385 -62.9732 -1.27222e-014 -6.36111e-015 -67.3994 -73.4412 -74.4011 -177.2 9.20393 72.9989 -73.0292 9.32491 -46.7633 -58.7271 1.59028e-015 -0 -88.2558 60.2504 94.7454 -68.0152 -4.58945 -167.561 -68.763 -6.36111e-015 -5.56597e-015 25.7208 11.0564 -12.4072 90 0 6.36111e-015 -70.1843 -6.89364 161 -70.9145 -6.36111e-015 -6.36111e-015 24.8507 -4.21974 8.04039 90 6.06643e-021 -0 
520.815 73.666 -197.552 130.176 49.2786 -32.3815 5.58594 0.199546 0.228501 11.1711 0.420873 0.436596 11.1711 0.420872 0.436587 -8.31066e-012 -9.0191e-006 -5.27751e-005 -29.111 -26.5946 3.0676 -175.395 -15.9645 -73.6771 -19.1499 -19.2703 59.0071 -62.8966 3.18055e-015 9.54166e-015 -67.9181 -73.0576 -75.0244 -177.193 9.26623 73.0632 -73.8424 8.95945 -46.6841 -59.396 3.18055e-015 -0 -88.1563 59.5078 94.7573 -68.3875 -3.73477 -167.76 -66.2173 0 -2.38542e-015 24.0139 11.0524 -11.8319 90 -6.06643e-021 6.36111e-015 -70.6457 -7.26834 161.056 -68.0933 -1.27222e-014 -9.54167e-015 22.9276 -4.57405 7.917 90 0 -0 
521.508 74.5586 -197.942 131.958 48.4731 -33.5873 5.68057 0.133313 0.183753 11.3607 0.284646 0.353507 11.3607 0.284646 0.353498 -8.31702e-012 -9.0191e-006 -5.27751e-005 -31.4921 -25.5809 2.64618 -175.539 -15.6876 -73.9056 -19.1145 -20.0799 58.7621 -62.1748 -3.18055e-015 9.54166e-015 -67.2905 -73.1618 -74.3346 -177.165 9.34459 73.0373 -74.5671 9.26475 -46.5723 -59.5583 0 6.36111e-015 -87.7877 58.8114 94.4431 -69.0557 -3.05159 -168.122 -63.7357 -3.18055e-015 1.59028e-015 22.2776 11.0766 -11.2809 90 -6.06643e-021 -6.36111e-015 -71.1711 -7.2409 161.229 -65.361 3.18056e-015 1.59028e-015 21.0976 -4.51981 7.99613 90 -6.06643e-021 -0 
522.224 75.2429 -198.325 134.223 47.9884 -35.1027 5.71557 0.0630723 0.197341 11.4309 0.145972 0.387518 11.4309 0.145971 0.387508 -8.29794e-012 -9.0191e-006 -5.27751e-005 -33.4029 -25.3046 2.23948 -175.608 -15.5155 -73.9811 -20.2718 -21.6668 58.1508 -60.3638 -9.54166e-015 6.36111e-015 -65.6222 -73.3542 -72.5195 -177.197 9.21926 73.0072 -74.6075 10.658 -46.7185 -58.7783 4.77083e-015 1.59028e-015 -87.0934 57.684 93.8029 -70.0849 -2.4667 -168.899 -61.5694 0 -0 20.6203 11.2125 -10.7237 90 -1.81993e-020 -1.27222e-014 -71.9103 -6.76812 161.086 -63.1719 3.18056e-015 -1.59028e-015 19.6216 -4.17941 8.30914 90 0 -9.54166e-015 
522.923 75.5763 -198.717 136.412 47.6332 -36.4084 5.7436 0.0766044 0.220924 11.4869 0.175422 0.433172 11.4869 0.175421 0.433162 -8.31384e-012 -9.0191e-006 -5.27751e-005 -34.8967 -25.2731 1.6122 -175.685 -15.2691 -74.0137 -22.6829 -24.2153 57.2374 -56.9863 0 -3.18055e-015 -62.6066 -73.5128 -69.2754 -177.238 9.08065 73.0033 -74.5818 13.0161 -46.7546 -56.3813 0 -6.36111e-015 -86.2458 55.8675 93.0522 -71.4644 -1.6636 -169.672 -60.1866 3.18055e-015 -1.59028e-015 19.2932 11.5924 -10.173 90 9.09964e-021 3.18055e-015 -72.9909 -5.85753 160.767 -61.9456 0 -3.18056e-015 18.5829 -3.68164 8.70384 90 -6.06643e-021 -9.54166e-015 
523.563 75.5133 -199.091 138.163 47.3678 -37.2996 5.77962 0.117998 0.237401 11.5587 0.25979 0.461811 11.5587 0.259789 0.461802 -8.30748e-012 -9.0191e-006 -5.27751e-005 -35.887 -25.1712 0.914741 -175.797 -14.8667 -74.0158 -25.4615 -27.4506 55.9886 -52.3454 -1.59028e-014 -6.36111e-015 -59.8398 -73.4864 -66.327 -177.359 8.68192 73.0067 -74.7766 15.8118 -46.444 -52.1422 3.18055e-015 -3.18055e-015 -85.4543 54.015 92.3229 -73.0882 -0.716058 -170.245 -59.8614 3.18055e-015 -3.18055e-015 18.4744 12.121 -9.66046 90 -6.06643e-021 -3.18055e-015 -74.3366 -4.65869 160.401 -61.8121 -3.18056e-015 -1.59028e-015 18.0221 -3.16494 9.10899 90 -1.21329e-020 -6.36111e-015 
524.188 75.0787 -199.41 139.812 47.4191 -38.1479 5.82755 0.117267 0.289346 11.6545 0.263793 0.565389 11.6545 0.263793 0.56538 -8.31384e-012 -9.0191e-006 -5.27751e-005 -36.8111 -24.7577 0.0900431 -175.956 -14.3418 -74.0705 -28.1029 -30.7689 54.6124 -47.6443 -6.36111e-015 -3.18055e-015 -57.4822 -72.8388 -63.8923 -177.506 8.23867 73.0938 -75.0381 18.3767 -45.6243 -48.19 -4.77083e-015 1.59028e-015 -84.6444 54.0151 91.3164 -74.9811 0.0370919 -171.023 -60.5271 3.18055e-015 2.38542e-015 18.0887 12.5946 -9.15393 90 6.06643e-021 -6.36111e-015 -75.971 -3.46888 159.634 -62.7305 -9.54167e-015 -4.77083e-015 17.9625 -2.77988 9.55212 90 1.21329e-020 1.27222e-014 
524.737 74.3267 -199.769 141.554 47.3627 -39.2901 5.81453 0.0934507 0.376622 11.6284 0.225062 0.741939 11.6284 0.225061 0.741929 -8.3043e-012 -9.0191e-006 -5.27751e-005 -37.7616 -24.662 -0.525289 -176.164 -13.8332 -74.335 -29.9483 -33.4073 53.3206 -44.2142 9.54166e-015 -3.18055e-015 -54.7608 -72.3683 -61.0293 -177.639 7.92602 73.3533 -76.1711 20.1856 -44.3462 -44.5363 1.59028e-015 -0 -83.9773 53.9897 90.4898 -77.4563 0.466659 -171.62 -62.0462 3.18055e-015 -1.59028e-015 18.0643 13.0531 -8.7468 90 0 -6.36111e-015 -78.0819 -2.35474 158.94 -64.4101 3.18056e-015 -1.59028e-015 18.2482 -2.45734 9.97808 90 1.21329e-020 -0 
525.217 73.4218 -200.069 142.987 47.2764 -40.3009 5.80726 0.038235 0.458466 11.614 0.123149 0.910808 11.614 0.123148 0.910799 -8.3043e-012 -9.0191e-006 -5.27751e-005 -38.5542 -24.8874 -0.914065 -176.282 -13.5045 -74.4486 -31.7001 -34.6979 51.4027 -42.7146 -6.36111e-015 -6.36111e-015 -53.0006 -72.2408 -59.1539 -177.802 7.56078 73.7372 -77.2706 21.5457 -43.2271 -41.6754 0 -3.18055e-015 -83.5362 53.8989 89.9498 -79.9387 0.693768 -172.067 -64.0095 -3.18055e-015 7.95139e-015 18.3118 13.3917 -8.42428 90 -6.06643e-021 -6.36111e-015 -80.156 -1.27897 158.372 -66.4184 6.36111e-015 1.11319e-014 18.7176 -2.17189 10.403 90 -6.06643e-021 -1.27222e-014 
525.672 72.4474 -200.327 144.235 46.983 -41.1152 5.81469 0.0430437 0.495625 11.6288 0.136565 0.984436 11.6288 0.136564 0.984427 -8.3043e-012 -9.0191e-006 -5.27751e-005 -39.2938 -25.3042 -1.10363 -176.395 -13.3812 -74.7703 -33.484 -35.5021 49.7945 -42.3227 -6.36111e-015 -3.18055e-015 -52.6132 -71.969 -58.7629 -177.942 7.25307 74.114 -78.0631 22.4384 -42.1022 -40.1188 0 -0 -83.3466 53.3902 89.7583 -82.477 0.853134 -172.388 -66.1519 -3.18055e-015 -2.38542e-015 18.71 13.5743 -8.16756 90 3.03321e-020 -3.18055e-015 -82.286 -0.0666993 158.015 -68.4987 0 1.27222e-014 19.2146 -1.94035 10.8538 90 -1.81993e-020 9.54166e-015 
526.092 71.4675 -200.571 145.393 46.5994 -41.7083 5.81181 0.0387815 0.498106 11.6231 0.128289 0.989822 11.6231 0.128288 0.989812 -8.3043e-012 -9.0191e-006 -5.27751e-005 -39.6086 -25.4856 -1.43069 -176.478 -13.3112 -75.035 -34.4851 -36.1457 48.7475 -42.5713 3.18055e-015 6.36111e-015 -53.1797 -71.8655 -59.3807 -178.038 7.01163 74.3239 -78.9339 22.9861 -41.0101 -39.0059 -1.59028e-015 -3.18055e-015 -83.2439 52.8126 89.6777 -84.936 1.04275 -172.694 -68.2304 0 1.59028e-015 19.1314 13.5788 -7.98299 90 0 3.18055e-015 -84.4523 1.25844 157.749 -70.5622 3.18056e-015 -0 19.6772 -1.74116 11.267 90 3.03321e-021 3.18055e-015 
526.491 70.5802 -200.732 146.369 46.4656 -42.0677 5.85567 0.016625 0.487347 11.711 0.0833713 0.970552 11.711 0.0833704 0.970543 -8.3043e-012 -9.0191e-006 -5.27751e-005 -39.4302 -25.7951 -1.55842 -176.518 -13.2629 -75.1462 -35.2137 -36.7792 47.9577 -42.9293 0 6.36111e-015 -53.6083 -71.8302 -59.8445 -178.127 6.79194 74.5415 -79.5373 23.3198 -40.0314 -38.6196 -4.77083e-015 -0 -83.3066 52.5173 89.7811 -86.8905 1.2257 -173.215 -70.0292 0 2.38542e-015 19.5137 13.4341 -7.84218 90 1.21329e-020 -9.54166e-015 -86.2105 2.57412 157.327 -72.4288 0 -3.18056e-015 20.1028 -1.61039 11.689 90 1.81993e-020 -0 
526.872 69.8078 -200.871 147.12 46.1734 -42.307 5.89194 0.00653185 0.484029 11.7836 0.063204 0.964927 11.7836 0.0632031 0.964918 -8.29476e-012 -9.0191e-006 -5.27751e-005 -38.9975 -26.0795 -1.70375 -176.564 -13.2164 -75.2849 -35.2333 -37.1579 47.7392 -43.7049 3.18055e-015 -3.18055e-015 -54.2463 -71.5646 -60.5553 -178.184 6.66329 74.7153 -80.6157 23.2433 -38.8307 -38.2982 0 -0 -83.2782 52.5152 89.7454 -88.6847 1.46161 -173.488 -71.5978 3.18055e-015 -0 19.8223 13.314 -7.67624 90 0 9.54166e-015 -87.787 3.75502 157.162 -73.9316 9.54167e-015 9.54167e-015 20.3697 -1.50549 12.0746 90 -1.21329e-020 9.54166e-015 
527.216 69.1932 -200.991 147.63 45.7949 -42.357 5.94688 0.0153237 0.474517 11.8934 0.0802157 0.944988 11.8934 0.0802148 0.944979 -8.30748e-012 -9.0191e-006 -5.27751e-005 -38.5548 -26.6504 -1.62529 -176.705 -12.9544 -75.5953 -35.0173 -37.349 47.5492 -44.2029 3.18055e-015 -9.54166e-015 -55.2972 -71.7383 -61.6696 -178.234 6.52647 74.8239 -81.7381 23.2066 -37.5091 -37.8767 -1.59028e-015 -0 -83.1511 52.5859 89.5787 -90.2004 1.9571 -173.437 -72.8434 -3.18055e-015 3.18055e-015 20.0327 13.4242 -7.42688 90 6.06643e-021 3.18055e-015 -89.1479 4.72607 157.148 -75.0381 3.18056e-015 -6.36111e-015 20.4665 -1.47845 12.363 90 -1.21329e-020 -9.54166e-015 
527.545 68.7911 -201.101 148.071 45.3938 -42.1405 5.98441 0.0289784 0.435603 11.9684 0.103702 0.865906 11.9684 0.103701 0.865897 -8.31066e-012 -9.0191e-006 -5.27751e-005 -38.0324 -27.3312 -1.50902 -176.881 -12.5504 -75.924 -35.3517 -37.495 47.054 -43.9401 -6.36111e-015 -3.18055e-015 -55.8073 -71.7057 -62.222 -178.274 6.39429 74.8602 -82.6071 23.3198 -36.2946 -37.2026 0 1.59028e-015 -82.9734 52.7381 89.3422 -91.374 2.88974 -173.231 -73.5578 0 -3.18055e-015 20.0279 13.6278 -7.07936 90 1.21329e-020 -1.59028e-014 -90.3373 5.64788 157.128 -75.7096 6.36111e-015 -3.18056e-015 20.3564 -1.52799 12.5371 90 1.81993e-020 6.36111e-015 
